<?xml version="1.0" encoding="UTF-8"?>
<mxfile host="app.diagrams.net" agent="Mozilla/5.0 (Windows NT 10.0; Win64; x64) AppleWebKit/537.36 (KHTML, like Gecko) Chrome/136.0.0.0 Safari/537.36 Edg/136.0.0.0" version="27.0.6">
  <diagram id="C5RBs43oDa-KdzZeNtuy" name="Page-1">
    <mxGraphModel dx="2131" dy="863" grid="1" gridSize="10" guides="1" tooltips="1" connect="1" arrows="1" fold="1" page="1" pageScale="1" pageWidth="827" pageHeight="1169" math="0" shadow="0">
      <root>
        <mxCell id="WIyWlLk6GJQsqaUBKTNV-0" />
        <mxCell id="WIyWlLk6GJQsqaUBKTNV-1" parent="WIyWlLk6GJQsqaUBKTNV-0" />
        <mxCell id="HIAhLpLzVSx4tMOQITRS-12" style="edgeStyle=orthogonalEdgeStyle;rounded=0;orthogonalLoop=1;jettySize=auto;html=1;exitX=0.5;exitY=1;exitDx=0;exitDy=0;entryX=0.5;entryY=0;entryDx=0;entryDy=0;" parent="WIyWlLk6GJQsqaUBKTNV-1" source="HIAhLpLzVSx4tMOQITRS-0" target="HIAhLpLzVSx4tMOQITRS-1" edge="1">
          <mxGeometry relative="1" as="geometry" />
        </mxCell>
        <mxCell id="HIAhLpLzVSx4tMOQITRS-0" value="&lt;font style=&quot;font-size: 20px;&quot;&gt;Chạy chương trình&lt;/font&gt;" style="ellipse;whiteSpace=wrap;html=1;" parent="WIyWlLk6GJQsqaUBKTNV-1" vertex="1">
          <mxGeometry x="330" y="60" width="150" height="60" as="geometry" />
        </mxCell>
        <mxCell id="HIAhLpLzVSx4tMOQITRS-14" style="edgeStyle=orthogonalEdgeStyle;rounded=0;orthogonalLoop=1;jettySize=auto;html=1;exitX=0.5;exitY=1;exitDx=0;exitDy=0;entryX=0.5;entryY=0;entryDx=0;entryDy=0;" parent="WIyWlLk6GJQsqaUBKTNV-1" source="HIAhLpLzVSx4tMOQITRS-1" target="HIAhLpLzVSx4tMOQITRS-2" edge="1">
          <mxGeometry relative="1" as="geometry" />
        </mxCell>
        <mxCell id="HIAhLpLzVSx4tMOQITRS-1" value="&lt;font style=&quot;font-size: 20px;&quot;&gt;Thu Thập dữ liệu&lt;/font&gt;" style="rounded=0;whiteSpace=wrap;html=1;" parent="WIyWlLk6GJQsqaUBKTNV-1" vertex="1">
          <mxGeometry x="330" y="160" width="150" height="60" as="geometry" />
        </mxCell>
        <mxCell id="HIAhLpLzVSx4tMOQITRS-15" style="edgeStyle=orthogonalEdgeStyle;rounded=0;orthogonalLoop=1;jettySize=auto;html=1;exitX=0.5;exitY=1;exitDx=0;exitDy=0;entryX=0.5;entryY=0;entryDx=0;entryDy=0;" parent="WIyWlLk6GJQsqaUBKTNV-1" source="HIAhLpLzVSx4tMOQITRS-2" target="HIAhLpLzVSx4tMOQITRS-3" edge="1">
          <mxGeometry relative="1" as="geometry" />
        </mxCell>
        <mxCell id="HIAhLpLzVSx4tMOQITRS-17" style="edgeStyle=orthogonalEdgeStyle;rounded=0;orthogonalLoop=1;jettySize=auto;html=1;exitX=0;exitY=0.5;exitDx=0;exitDy=0;entryX=1;entryY=0.5;entryDx=0;entryDy=0;" parent="WIyWlLk6GJQsqaUBKTNV-1" source="HIAhLpLzVSx4tMOQITRS-2" target="HIAhLpLzVSx4tMOQITRS-4" edge="1">
          <mxGeometry relative="1" as="geometry" />
        </mxCell>
        <mxCell id="HIAhLpLzVSx4tMOQITRS-2" value="&lt;font style=&quot;font-size: 20px;&quot;&gt;Tiền xử lý DL&lt;/font&gt;" style="rounded=0;whiteSpace=wrap;html=1;" parent="WIyWlLk6GJQsqaUBKTNV-1" vertex="1">
          <mxGeometry x="330" y="250" width="150" height="60" as="geometry" />
        </mxCell>
        <mxCell id="HIAhLpLzVSx4tMOQITRS-27" style="edgeStyle=orthogonalEdgeStyle;rounded=0;orthogonalLoop=1;jettySize=auto;html=1;exitX=0.5;exitY=1;exitDx=0;exitDy=0;entryX=0.5;entryY=0;entryDx=0;entryDy=0;" parent="WIyWlLk6GJQsqaUBKTNV-1" source="HIAhLpLzVSx4tMOQITRS-3" target="HIAhLpLzVSx4tMOQITRS-5" edge="1">
          <mxGeometry relative="1" as="geometry" />
        </mxCell>
        <mxCell id="HIAhLpLzVSx4tMOQITRS-3" value="Phân tích DL" style="rounded=0;whiteSpace=wrap;html=1;fontSize=20;" parent="WIyWlLk6GJQsqaUBKTNV-1" vertex="1">
          <mxGeometry x="330" y="330" width="150" height="60" as="geometry" />
        </mxCell>
        <mxCell id="HIAhLpLzVSx4tMOQITRS-18" style="edgeStyle=orthogonalEdgeStyle;rounded=0;orthogonalLoop=1;jettySize=auto;html=1;exitX=0.5;exitY=1;exitDx=0;exitDy=0;entryX=0;entryY=0.5;entryDx=0;entryDy=0;" parent="WIyWlLk6GJQsqaUBKTNV-1" source="HIAhLpLzVSx4tMOQITRS-4" target="HIAhLpLzVSx4tMOQITRS-9" edge="1">
          <mxGeometry relative="1" as="geometry">
            <mxPoint x="134.42857142857156" y="730" as="targetPoint" />
          </mxGeometry>
        </mxCell>
        <mxCell id="HIAhLpLzVSx4tMOQITRS-4" value="Kiểm tra DL" style="rounded=0;whiteSpace=wrap;html=1;fontSize=20;" parent="WIyWlLk6GJQsqaUBKTNV-1" vertex="1">
          <mxGeometry x="60" y="250" width="150" height="60" as="geometry" />
        </mxCell>
        <mxCell id="HIAhLpLzVSx4tMOQITRS-26" style="edgeStyle=orthogonalEdgeStyle;rounded=0;orthogonalLoop=1;jettySize=auto;html=1;exitX=0.5;exitY=1;exitDx=0;exitDy=0;entryX=0.5;entryY=0;entryDx=0;entryDy=0;" parent="WIyWlLk6GJQsqaUBKTNV-1" source="HIAhLpLzVSx4tMOQITRS-5" target="HIAhLpLzVSx4tMOQITRS-6" edge="1">
          <mxGeometry relative="1" as="geometry" />
        </mxCell>
        <mxCell id="HIAhLpLzVSx4tMOQITRS-5" value="Huấn luyện DL, Xác thực DL" style="rounded=0;whiteSpace=wrap;html=1;fontSize=20;" parent="WIyWlLk6GJQsqaUBKTNV-1" vertex="1">
          <mxGeometry x="330" y="410" width="150" height="60" as="geometry" />
        </mxCell>
        <mxCell id="HIAhLpLzVSx4tMOQITRS-24" style="edgeStyle=orthogonalEdgeStyle;rounded=0;orthogonalLoop=1;jettySize=auto;html=1;exitX=0.5;exitY=1;exitDx=0;exitDy=0;entryX=0.5;entryY=0;entryDx=0;entryDy=0;" parent="WIyWlLk6GJQsqaUBKTNV-1" source="HIAhLpLzVSx4tMOQITRS-6" target="HIAhLpLzVSx4tMOQITRS-7" edge="1">
          <mxGeometry relative="1" as="geometry" />
        </mxCell>
        <mxCell id="HIAhLpLzVSx4tMOQITRS-6" value="&lt;font style=&quot;font-size: 18px;&quot;&gt;Xây dựng, huấn luyện mô hình LR&lt;/font&gt;" style="rounded=0;whiteSpace=wrap;html=1;fontSize=20;" parent="WIyWlLk6GJQsqaUBKTNV-1" vertex="1">
          <mxGeometry x="330" y="490" width="150" height="60" as="geometry" />
        </mxCell>
        <mxCell id="HIAhLpLzVSx4tMOQITRS-21" style="edgeStyle=orthogonalEdgeStyle;rounded=0;orthogonalLoop=1;jettySize=auto;html=1;exitX=0.5;exitY=1;exitDx=0;exitDy=0;entryX=0.5;entryY=0;entryDx=0;entryDy=0;" parent="WIyWlLk6GJQsqaUBKTNV-1" source="HIAhLpLzVSx4tMOQITRS-7" target="HIAhLpLzVSx4tMOQITRS-9" edge="1">
          <mxGeometry relative="1" as="geometry" />
        </mxCell>
        <mxCell id="HIAhLpLzVSx4tMOQITRS-23" style="edgeStyle=orthogonalEdgeStyle;rounded=0;orthogonalLoop=1;jettySize=auto;html=1;exitX=1;exitY=0.5;exitDx=0;exitDy=0;entryX=0.5;entryY=1;entryDx=0;entryDy=0;" parent="WIyWlLk6GJQsqaUBKTNV-1" source="HIAhLpLzVSx4tMOQITRS-7" target="HIAhLpLzVSx4tMOQITRS-8" edge="1">
          <mxGeometry relative="1" as="geometry" />
        </mxCell>
        <mxCell id="HIAhLpLzVSx4tMOQITRS-7" value="&lt;font style=&quot;font-size: 15px;&quot;&gt;Dự đoán chính xác&lt;/font&gt;" style="rhombus;whiteSpace=wrap;html=1;" parent="WIyWlLk6GJQsqaUBKTNV-1" vertex="1">
          <mxGeometry x="330" y="570" width="150" height="90" as="geometry" />
        </mxCell>
        <mxCell id="HIAhLpLzVSx4tMOQITRS-25" style="edgeStyle=orthogonalEdgeStyle;rounded=0;orthogonalLoop=1;jettySize=auto;html=1;exitX=0.5;exitY=0;exitDx=0;exitDy=0;entryX=1;entryY=0.5;entryDx=0;entryDy=0;" parent="WIyWlLk6GJQsqaUBKTNV-1" source="HIAhLpLzVSx4tMOQITRS-8" target="HIAhLpLzVSx4tMOQITRS-5" edge="1">
          <mxGeometry relative="1" as="geometry" />
        </mxCell>
        <mxCell id="HIAhLpLzVSx4tMOQITRS-8" value="&lt;font style=&quot;font-size: 18px;&quot;&gt;Cải thiện hiệu suất mô hình&lt;/font&gt;" style="rounded=0;whiteSpace=wrap;html=1;fontSize=20;" parent="WIyWlLk6GJQsqaUBKTNV-1" vertex="1">
          <mxGeometry x="610" y="470" width="150" height="60" as="geometry" />
        </mxCell>
        <mxCell id="HIAhLpLzVSx4tMOQITRS-20" style="edgeStyle=orthogonalEdgeStyle;rounded=0;orthogonalLoop=1;jettySize=auto;html=1;exitX=0.5;exitY=1;exitDx=0;exitDy=0;entryX=0.5;entryY=0;entryDx=0;entryDy=0;" parent="WIyWlLk6GJQsqaUBKTNV-1" source="HIAhLpLzVSx4tMOQITRS-9" target="HIAhLpLzVSx4tMOQITRS-11" edge="1">
          <mxGeometry relative="1" as="geometry" />
        </mxCell>
        <mxCell id="HIAhLpLzVSx4tMOQITRS-9" value="&lt;font style=&quot;font-size: 18px;&quot;&gt;Kiểm thử mô hình&lt;/font&gt;" style="rounded=0;whiteSpace=wrap;html=1;fontSize=20;" parent="WIyWlLk6GJQsqaUBKTNV-1" vertex="1">
          <mxGeometry x="330" y="700" width="150" height="60" as="geometry" />
        </mxCell>
        <mxCell id="HIAhLpLzVSx4tMOQITRS-11" value="&lt;font style=&quot;font-size: 20px;&quot;&gt;Kết thúc&lt;/font&gt;" style="ellipse;whiteSpace=wrap;html=1;" parent="WIyWlLk6GJQsqaUBKTNV-1" vertex="1">
          <mxGeometry x="330" y="800" width="150" height="60" as="geometry" />
        </mxCell>
      </root>
    </mxGraphModel>
  </diagram>
</mxfile>
